<svg width="31" height="32" viewBox="0 0 31 32" fill="none" xmlns="http://www.w3.org/2000/svg">
<path d="M30.9166 15.9999C30.9166 12.9508 30.0124 9.97014 28.3184 7.43488C26.6244 4.89963 24.2167 2.92363 21.3996 1.75678C18.5826 0.589932 15.4828 0.28463 12.4923 0.879486C9.50174 1.47434 6.75476 2.94264 4.5987 5.0987C2.44264 7.25476 0.974341 10.0017 0.379486 12.9923C-0.21537 15.9828 0.0899317 19.0826 1.25678 21.8996C2.42363 24.7167 4.39963 27.1244 6.93488 28.8184C9.47014 30.5124 12.4508 31.4166 15.4999 31.4166C19.5873 31.412 23.5059 29.7863 26.3961 26.8961C29.2863 24.0059 30.912 20.0873 30.9166 15.9999ZM14.41 23.2566C14.2668 23.1134 14.1532 22.9435 14.0757 22.7565C13.9982 22.5695 13.9583 22.369 13.9583 22.1665C13.9583 21.9641 13.9982 21.7636 14.0757 21.5766C14.1532 21.3896 14.2668 21.2197 14.41 21.0765L17.9449 17.5416H9.33326C8.92438 17.5416 8.53225 17.3792 8.24314 17.09C7.95402 16.8009 7.79159 16.4088 7.79159 15.9999C7.79159 15.5911 7.95402 15.1989 8.24314 14.9098C8.53225 14.6207 8.92438 14.4583 9.33326 14.4583H17.9449L14.41 10.9232C14.1252 10.6332 13.9665 10.2426 13.9683 9.83615C13.9702 9.42974 14.1324 9.0405 14.4198 8.75313C14.7072 8.46575 15.0964 8.30349 15.5028 8.30165C15.9092 8.29981 16.2999 8.45854 16.5899 8.7433L22.7561 14.9095C23.0441 15.1993 23.2057 15.5914 23.2057 16C23.2057 16.4086 23.0441 16.8006 22.7561 17.0905L16.5899 23.2566C16.4468 23.3997 16.2769 23.5133 16.0898 23.5908C15.9028 23.6683 15.7024 23.7082 15.4999 23.7082C15.2975 23.7082 15.097 23.6683 14.91 23.5908C14.723 23.5133 14.5531 23.3997 14.41 23.2566Z" fill="#FCE0EF"/>
</svg>
