<svg width="132" height="46" viewBox="0 0 132 46" fill="none" xmlns="http://www.w3.org/2000/svg">
<rect width="132" height="46" rx="4" fill="#ED017F"/>
<path d="M27.9508 27.132C29.9188 27.132 31.0468 26.088 31.0468 24.612C31.0468 23.112 29.8948 22.56 28.1788 22.176C26.8708 21.876 26.2588 21.636 26.2588 20.964C26.2588 20.388 26.8228 19.884 27.6508 19.884C28.4668 19.884 29.2948 20.232 30.0148 20.856L30.8308 19.752C30.0028 19.044 29.0188 18.6 27.7108 18.6C25.9708 18.6 24.7468 19.656 24.7468 21.096C24.7468 22.644 25.9348 23.136 27.6388 23.532C28.9588 23.844 29.5468 24.072 29.5468 24.756C29.5468 25.344 29.0188 25.848 27.9988 25.848C26.9188 25.848 26.0428 25.416 25.2868 24.732L24.4228 25.8C25.3348 26.652 26.5348 27.132 27.9508 27.132ZM38.0745 27.144C40.2105 27.144 41.7105 25.632 41.7105 23.484V18.756H40.2225V23.436C40.2225 24.804 39.3345 25.788 38.0745 25.788C36.8265 25.788 35.9385 24.804 35.9385 23.436V18.756H34.4385V23.484C34.4385 25.632 35.9505 27.144 38.0745 27.144ZM45.5459 27H49.7459C51.2819 27 52.3739 26.076 52.3739 24.756C52.3739 23.856 51.8099 23.1 50.8619 22.644C51.5939 22.248 52.0259 21.66 52.0259 20.82C52.0259 19.62 51.0179 18.756 49.5899 18.756H45.5459V27ZM47.0339 22.128V20.052H49.2299C49.9619 20.052 50.4899 20.484 50.4899 21.096C50.4899 21.696 49.9619 22.128 49.2299 22.128H47.0339ZM47.0339 25.704V23.352H49.4459C50.2619 23.352 50.8379 23.844 50.8379 24.528C50.8379 25.212 50.2619 25.704 49.4459 25.704H47.0339ZM58.818 27.132C60.786 27.132 61.914 26.088 61.914 24.612C61.914 23.112 60.762 22.56 59.046 22.176C57.738 21.876 57.126 21.636 57.126 20.964C57.126 20.388 57.69 19.884 58.518 19.884C59.334 19.884 60.162 20.232 60.882 20.856L61.698 19.752C60.87 19.044 59.886 18.6 58.578 18.6C56.838 18.6 55.614 19.656 55.614 21.096C55.614 22.644 56.802 23.136 58.506 23.532C59.826 23.844 60.414 24.072 60.414 24.756C60.414 25.344 59.886 25.848 58.866 25.848C57.786 25.848 56.91 25.416 56.154 24.732L55.29 25.8C56.202 26.652 57.402 27.132 58.818 27.132ZM69.3017 27.144C70.5137 27.144 71.6177 26.628 72.4097 25.8L71.3537 24.816C70.8377 25.404 70.1057 25.776 69.3017 25.776C67.7777 25.776 66.4937 24.456 66.4937 22.872C66.4937 21.3 67.7777 19.98 69.3017 19.98C70.0937 19.98 70.8377 20.352 71.3417 20.94L72.4097 19.944C71.6177 19.128 70.5137 18.612 69.3017 18.612C66.9497 18.612 64.9697 20.556 64.9697 22.872C64.9697 25.188 66.9497 27.144 69.3017 27.144ZM82.3108 27L80.2468 24.072C81.4348 23.7 82.2388 22.74 82.2388 21.492C82.2388 19.884 80.9188 18.756 79.1548 18.756H75.5668V27H77.0668V24.228H78.6628L80.6068 27H82.3108ZM77.0668 20.136H78.9868C80.0068 20.136 80.7148 20.652 80.7148 21.492C80.7148 22.332 80.0068 22.848 78.9868 22.848H77.0668V20.136ZM85.6182 27H87.1062V18.756H85.6182V27ZM90.9366 27H95.1366C96.6726 27 97.7646 26.076 97.7646 24.756C97.7646 23.856 97.2006 23.1 96.2526 22.644C96.9846 22.248 97.4166 21.66 97.4166 20.82C97.4166 19.62 96.4086 18.756 94.9806 18.756H90.9366V27ZM92.4246 22.128V20.052H94.6206C95.3526 20.052 95.8806 20.484 95.8806 21.096C95.8806 21.696 95.3526 22.128 94.6206 22.128H92.4246ZM92.4246 25.704V23.352H94.8366C95.6526 23.352 96.2286 23.844 96.2286 24.528C96.2286 25.212 95.6526 25.704 94.8366 25.704H92.4246ZM107.365 20.124V18.756H101.161V27H107.365V25.632H102.661V23.484H106.921V22.116H102.661V20.124H107.365Z" fill="white"/>
</svg>
