<svg width="188" height="46" viewBox="0 0 188 46" fill="none" xmlns="http://www.w3.org/2000/svg">
<rect x="0.5" y="0.5" width="187" height="45" rx="3.5" stroke="#ED017F"/>
<path d="M22.3676 25.632V18.756H20.8796V27H26.6036V25.632H22.3676ZM33.8388 27.144C36.1788 27.144 38.1588 25.188 38.1588 22.872C38.1588 20.556 36.1788 18.612 33.8388 18.612C31.4868 18.612 29.5068 20.556 29.5068 22.872C29.5068 25.188 31.4868 27.144 33.8388 27.144ZM33.8388 25.776C32.3148 25.776 31.0308 24.456 31.0308 22.872C31.0308 21.3 32.3148 19.98 33.8388 19.98C35.3508 19.98 36.6228 21.3 36.6228 22.872C36.6228 24.456 35.3508 25.776 33.8388 25.776ZM47.8096 27H49.4656L46.0216 18.756H44.3536L40.9096 27H42.5776L43.2016 25.512H47.1856L47.8096 27ZM43.7416 24.216L45.1936 20.748L46.6456 24.216H43.7416ZM52.6651 27H54.1651V21.204L58.5211 27H60.0091V18.756H58.5211V24.552L54.1651 18.756H52.6651V27ZM73.245 27.144C74.457 27.144 75.561 26.628 76.353 25.8L75.297 24.816C74.781 25.404 74.049 25.776 73.245 25.776C71.721 25.776 70.437 24.456 70.437 22.872C70.437 21.3 71.721 19.98 73.245 19.98C74.037 19.98 74.781 20.352 75.285 20.94L76.353 19.944C75.561 19.128 74.457 18.612 73.245 18.612C70.893 18.612 68.913 20.556 68.913 22.872C68.913 25.188 70.893 27.144 73.245 27.144ZM85.7862 27H87.4422L83.9982 18.756H82.3302L78.8862 27H80.5542L81.1782 25.512H85.1622L85.7862 27ZM81.7182 24.216L83.1702 20.748L84.6222 24.216H81.7182ZM94.5536 27.144C95.7656 27.144 96.8696 26.628 97.6616 25.8L96.6056 24.816C96.0896 25.404 95.3576 25.776 94.5536 25.776C93.0296 25.776 91.7456 24.456 91.7456 22.872C91.7456 21.3 93.0296 19.98 94.5536 19.98C95.3456 19.98 96.0896 20.352 96.5936 20.94L97.6616 19.944C96.8696 19.128 95.7656 18.612 94.5536 18.612C92.2016 18.612 90.2216 20.556 90.2216 22.872C90.2216 25.188 92.2016 27.144 94.5536 27.144ZM102.235 25.632V18.756H100.747V27H106.471V25.632H102.235ZM113.346 27.144C115.482 27.144 116.982 25.632 116.982 23.484V18.756H115.494V23.436C115.494 24.804 114.606 25.788 113.346 25.788C112.098 25.788 111.21 24.804 111.21 23.436V18.756H109.71V23.484C109.71 25.632 111.222 27.144 113.346 27.144ZM122.125 25.632V18.756H120.637V27H126.361V25.632H122.125ZM135.853 27H137.509L134.065 18.756H132.397L128.953 27H130.621L131.245 25.512H135.229L135.853 27ZM131.785 24.216L133.237 20.748L134.689 24.216H131.785ZM142.047 27H143.535V20.124H146.175V18.756H139.407V20.124H142.047V27ZM153.03 27.144C155.37 27.144 157.35 25.188 157.35 22.872C157.35 20.556 155.37 18.612 153.03 18.612C150.678 18.612 148.698 20.556 148.698 22.872C148.698 25.188 150.678 27.144 153.03 27.144ZM153.03 25.776C151.506 25.776 150.222 24.456 150.222 22.872C150.222 21.3 151.506 19.98 153.03 19.98C154.542 19.98 155.814 21.3 155.814 22.872C155.814 24.456 154.542 25.776 153.03 25.776ZM167.469 27L165.405 24.072C166.593 23.7 167.397 22.74 167.397 21.492C167.397 19.884 166.077 18.756 164.313 18.756H160.725V27H162.225V24.228H163.821L165.765 27H167.469ZM162.225 20.136H164.145C165.165 20.136 165.873 20.652 165.873 21.492C165.873 22.332 165.165 22.848 164.145 22.848H162.225V20.136Z" fill="#ED017F"/>
</svg>
