<svg width="157" height="46" viewBox="0 0 157 46" fill="none" xmlns="http://www.w3.org/2000/svg">
<rect width="157" height="46" rx="4" fill="#ED017F"/>
<path d="M29.5928 27H31.2488L27.8048 18.756H26.1368L22.6928 27H24.3608L24.9848 25.512H28.9688L29.5928 27ZM25.5248 24.216L26.9768 20.748L28.4288 24.216H25.5248ZM34.3403 27H35.8403V24.228H37.9283C39.6923 24.228 41.0123 23.1 41.0123 21.492C41.0123 19.884 39.6923 18.756 37.9283 18.756H34.3403V27ZM35.8403 22.848V20.136H37.7603C38.7803 20.136 39.4883 20.652 39.4883 21.492C39.4883 22.332 38.7803 22.848 37.7603 22.848H35.8403ZM44.1918 27H45.6918V24.228H47.7798C49.5438 24.228 50.8638 23.1 50.8638 21.492C50.8638 19.884 49.5438 18.756 47.7798 18.756H44.1918V27ZM45.6918 22.848V20.136H47.6118C48.6318 20.136 49.3398 20.652 49.3398 21.492C49.3398 22.332 48.6318 22.848 47.6118 22.848H45.6918ZM55.4594 25.632V18.756H53.9714V27H59.6954V25.632H55.4594ZM65.4186 27H66.9426V23.904L70.1946 18.756H68.4906L66.1866 22.488L63.9186 18.756H62.1546L65.4186 23.904V27ZM82.5556 27.144C84.8956 27.144 86.8756 25.188 86.8756 22.872C86.8756 20.556 84.8956 18.612 82.5556 18.612C80.2036 18.612 78.2236 20.556 78.2236 22.872C78.2236 25.188 80.2036 27.144 82.5556 27.144ZM82.5556 25.776C81.0316 25.776 79.7476 24.456 79.7476 22.872C79.7476 21.3 81.0316 19.98 82.5556 19.98C84.0676 19.98 85.3396 21.3 85.3396 22.872C85.3396 24.456 84.0676 25.776 82.5556 25.776ZM90.3584 27H91.8584V21.204L96.2144 27H97.7024V18.756H96.2144V24.552L91.8584 18.756H90.3584V27ZM102.936 25.632V18.756H101.448V27H107.172V25.632H102.936ZM110.411 27H111.899V18.756H110.411V27ZM115.73 27H117.23V21.204L121.586 27H123.074V18.756H121.586V24.552L117.23 18.756H115.73V27ZM133.095 20.124V18.756H126.891V27H133.095V25.632H128.391V23.484H132.651V22.116H128.391V20.124H133.095Z" fill="white"/>
</svg>
