<svg width="108" height="36" viewBox="0 0 108 36" fill="none" xmlns="http://www.w3.org/2000/svg">
<rect width="108" height="36" rx="4" fill="#ED017F"/>
<path d="M21.2957 14.728C21.2157 14.728 21.1477 14.7 21.0917 14.644C21.0357 14.588 21.0077 14.52 21.0077 14.44V13.576C21.0077 13.496 21.0357 13.428 21.0917 13.372C21.1477 13.316 21.2157 13.288 21.2957 13.288H22.3877C22.4677 13.288 22.5357 13.316 22.5917 13.372C22.6557 13.428 22.6877 13.496 22.6877 13.576V14.44C22.6877 14.52 22.6597 14.588 22.6037 14.644C22.5477 14.7 22.4757 14.728 22.3877 14.728H21.2957ZM21.3437 22C21.2637 22 21.1957 21.972 21.1397 21.916C21.0837 21.86 21.0557 21.792 21.0557 21.712V16.048C21.0557 15.968 21.0837 15.9 21.1397 15.844C21.1957 15.788 21.2637 15.76 21.3437 15.76H22.3397C22.4277 15.76 22.4957 15.788 22.5437 15.844C22.5997 15.892 22.6277 15.96 22.6277 16.048V21.712C22.6277 21.792 22.5997 21.86 22.5437 21.916C22.4957 21.972 22.4277 22 22.3397 22H21.3437ZM29.2797 22.12C28.5677 22.12 27.9557 22.012 27.4437 21.796C26.9317 21.58 26.5437 21.296 26.2797 20.944C26.0157 20.592 25.8757 20.212 25.8597 19.804C25.8597 19.732 25.8837 19.672 25.9317 19.624C25.9797 19.576 26.0397 19.552 26.1117 19.552H27.1797C27.2757 19.552 27.3477 19.572 27.3957 19.612C27.4517 19.644 27.5037 19.7 27.5517 19.78C27.6317 20.052 27.8157 20.28 28.1037 20.464C28.3917 20.648 28.7837 20.74 29.2797 20.74C29.8477 20.74 30.2757 20.648 30.5637 20.464C30.8517 20.272 30.9957 20.008 30.9957 19.672C30.9957 19.448 30.9197 19.264 30.7677 19.12C30.6237 18.976 30.4037 18.852 30.1077 18.748C29.8197 18.644 29.3877 18.516 28.8117 18.364C27.8677 18.14 27.1757 17.844 26.7357 17.476C26.3037 17.1 26.0877 16.568 26.0877 15.88C26.0877 15.416 26.2117 15.004 26.4597 14.644C26.7157 14.284 27.0797 14 27.5517 13.792C28.0317 13.584 28.5877 13.48 29.2197 13.48C29.8757 13.48 30.4437 13.596 30.9237 13.828C31.4037 14.06 31.7677 14.352 32.0157 14.704C32.2717 15.048 32.4077 15.392 32.4237 15.736C32.4237 15.808 32.3997 15.868 32.3517 15.916C32.3037 15.964 32.2437 15.988 32.1717 15.988H31.0557C30.8877 15.988 30.7717 15.912 30.7077 15.76C30.6597 15.504 30.4997 15.292 30.2277 15.124C29.9557 14.948 29.6197 14.86 29.2197 14.86C28.7717 14.86 28.4197 14.944 28.1637 15.112C27.9077 15.28 27.7797 15.524 27.7797 15.844C27.7797 16.068 27.8437 16.252 27.9717 16.396C28.0997 16.54 28.2997 16.668 28.5717 16.78C28.8517 16.892 29.2517 17.016 29.7717 17.152C30.4757 17.312 31.0357 17.492 31.4517 17.692C31.8757 17.892 32.1877 18.144 32.3877 18.448C32.5877 18.752 32.6877 19.14 32.6877 19.612C32.6877 20.124 32.5437 20.572 32.2557 20.956C31.9757 21.332 31.5757 21.62 31.0557 21.82C30.5437 22.02 29.9517 22.12 29.2797 22.12ZM36.351 22C36.271 22 36.203 21.972 36.147 21.916C36.091 21.86 36.063 21.792 36.063 21.712V13.9C36.063 13.812 36.087 13.74 36.135 13.684C36.191 13.628 36.263 13.6 36.351 13.6H41.631C41.719 13.6 41.791 13.628 41.847 13.684C41.903 13.74 41.931 13.812 41.931 13.9V14.692C41.931 14.78 41.903 14.852 41.847 14.908C41.791 14.956 41.719 14.98 41.631 14.98H37.683V17.104H41.367C41.455 17.104 41.527 17.132 41.583 17.188C41.639 17.236 41.667 17.304 41.667 17.392V18.136C41.667 18.224 41.639 18.296 41.583 18.352C41.527 18.4 41.455 18.424 41.367 18.424H37.683V20.62H41.727C41.815 20.62 41.887 20.648 41.943 20.704C41.999 20.76 42.027 20.832 42.027 20.92V21.712C42.027 21.8 41.999 21.872 41.943 21.928C41.887 21.976 41.815 22 41.727 22H36.351ZM45.8158 22C45.7358 22 45.6678 21.972 45.6118 21.916C45.5558 21.86 45.5278 21.792 45.5278 21.712V13.9C45.5278 13.812 45.5518 13.74 45.5998 13.684C45.6558 13.628 45.7278 13.6 45.8158 13.6H48.9238C49.8998 13.6 50.6638 13.828 51.2158 14.284C51.7758 14.74 52.0558 15.388 52.0558 16.228C52.0558 16.812 51.9118 17.304 51.6238 17.704C51.3438 18.096 50.9518 18.38 50.4478 18.556L52.1998 21.616C52.2238 21.664 52.2358 21.708 52.2358 21.748C52.2358 21.82 52.2078 21.88 52.1518 21.928C52.1038 21.976 52.0478 22 51.9838 22H50.8918C50.7638 22 50.6638 21.972 50.5918 21.916C50.5278 21.86 50.4678 21.78 50.4118 21.676L48.8638 18.832H47.1958V21.712C47.1958 21.792 47.1678 21.86 47.1118 21.916C47.0638 21.972 46.9958 22 46.9078 22H45.8158ZM48.8878 17.476C49.3678 17.476 49.7278 17.368 49.9678 17.152C50.2158 16.936 50.3398 16.624 50.3398 16.216C50.3398 15.808 50.2158 15.492 49.9678 15.268C49.7278 15.044 49.3678 14.932 48.8878 14.932H47.1958V17.476H48.8878ZM57.7805 22C57.5485 22 57.3965 21.888 57.3245 21.664L54.7565 13.96L54.7325 13.852C54.7325 13.78 54.7565 13.72 54.8045 13.672C54.8525 13.624 54.9125 13.6 54.9845 13.6H56.0405C56.1445 13.6 56.2245 13.628 56.2805 13.684C56.3445 13.732 56.3885 13.792 56.4125 13.864L58.4405 20.044L60.4685 13.864C60.4845 13.8 60.5245 13.74 60.5885 13.684C60.6525 13.628 60.7365 13.6 60.8405 13.6H61.8965C61.9605 13.6 62.0165 13.624 62.0645 13.672C62.1205 13.72 62.1485 13.78 62.1485 13.852L62.1245 13.96L59.5565 21.664C59.4845 21.888 59.3325 22 59.1005 22H57.7805ZM65.7064 22C65.6264 22 65.5584 21.972 65.5024 21.916C65.4464 21.86 65.4184 21.792 65.4184 21.712V13.888C65.4184 13.8 65.4464 13.732 65.5024 13.684C65.5584 13.628 65.6264 13.6 65.7064 13.6H66.8344C66.9224 13.6 66.9904 13.628 67.0384 13.684C67.0944 13.732 67.1224 13.8 67.1224 13.888V21.712C67.1224 21.792 67.0944 21.86 67.0384 21.916C66.9904 21.972 66.9224 22 66.8344 22H65.7064ZM74.2444 22.12C73.1404 22.12 72.2844 21.836 71.6764 21.268C71.0764 20.7 70.7564 19.9 70.7164 18.868C70.7084 18.652 70.7044 18.3 70.7044 17.812C70.7044 17.316 70.7084 16.956 70.7164 16.732C70.7564 15.708 71.0804 14.912 71.6884 14.344C72.3044 13.768 73.1564 13.48 74.2444 13.48C74.9564 13.48 75.5764 13.604 76.1044 13.852C76.6324 14.092 77.0404 14.424 77.3284 14.848C77.6164 15.264 77.7684 15.736 77.7844 16.264V16.288C77.7844 16.352 77.7564 16.408 77.7004 16.456C77.6524 16.496 77.5964 16.516 77.5324 16.516H76.3924C76.2964 16.516 76.2244 16.496 76.1764 16.456C76.1284 16.416 76.0884 16.34 76.0564 16.228C75.9284 15.724 75.7164 15.372 75.4204 15.172C75.1244 14.964 74.7284 14.86 74.2324 14.86C73.0804 14.86 72.4804 15.504 72.4324 16.792C72.4244 17.008 72.4204 17.34 72.4204 17.788C72.4204 18.236 72.4244 18.576 72.4324 18.808C72.4804 20.096 73.0804 20.74 74.2324 20.74C74.7284 20.74 75.1244 20.636 75.4204 20.428C75.7244 20.22 75.9364 19.868 76.0564 19.372C76.0804 19.26 76.1164 19.184 76.1644 19.144C76.2204 19.104 76.2964 19.084 76.3924 19.084H77.5324C77.6044 19.084 77.6644 19.108 77.7124 19.156C77.7684 19.204 77.7924 19.264 77.7844 19.336C77.7684 19.864 77.6164 20.34 77.3284 20.764C77.0404 21.18 76.6324 21.512 76.1044 21.76C75.5764 22 74.9564 22.12 74.2444 22.12ZM81.4955 22C81.4155 22 81.3475 21.972 81.2915 21.916C81.2355 21.86 81.2075 21.792 81.2075 21.712V13.9C81.2075 13.812 81.2315 13.74 81.2795 13.684C81.3355 13.628 81.4075 13.6 81.4955 13.6H86.7755C86.8635 13.6 86.9355 13.628 86.9915 13.684C87.0475 13.74 87.0755 13.812 87.0755 13.9V14.692C87.0755 14.78 87.0475 14.852 86.9915 14.908C86.9355 14.956 86.8635 14.98 86.7755 14.98H82.8275V17.104H86.5115C86.5995 17.104 86.6715 17.132 86.7275 17.188C86.7835 17.236 86.8115 17.304 86.8115 17.392V18.136C86.8115 18.224 86.7835 18.296 86.7275 18.352C86.6715 18.4 86.5995 18.424 86.5115 18.424H82.8275V20.62H86.8715C86.9595 20.62 87.0315 20.648 87.0875 20.704C87.1435 20.76 87.1715 20.832 87.1715 20.92V21.712C87.1715 21.8 87.1435 21.872 87.0875 21.928C87.0315 21.976 86.9595 22 86.8715 22H81.4955Z" fill="white"/>
</svg>
