<svg width="308" height="187" viewBox="0 0 308 187" fill="none" xmlns="http://www.w3.org/2000/svg">
<g filter="url(#filter0_d_22_23)">
<rect x="54" y="54" width="191.65" height="71" rx="35.5" fill="white"/>
<path d="M105.265 86.3073H104.856L103.26 82.3228C102.974 81.6143 102.484 81.0072 101.852 80.5794C101.219 80.1516 100.473 79.9226 99.7093 79.9219H92.0468C91.1596 79.9193 90.299 80.2248 89.6119 80.7861C88.9249 81.3474 88.4539 82.1297 88.2794 82.9996L87.6153 86.3073H87.3854C86.3693 86.3073 85.3948 86.7109 84.6763 87.4294C83.9578 88.1479 83.5542 89.1224 83.5542 90.1385V93.9698C83.5542 94.3085 83.6887 94.6333 83.9282 94.8728C84.1677 95.1123 84.4926 95.2469 84.8313 95.2469H86.1084C86.1084 96.263 86.512 97.2375 87.2305 97.956C87.949 98.6745 88.9235 99.0781 89.9396 99.0781C90.9557 99.0781 91.9302 98.6745 92.6487 97.956C93.3672 97.2375 93.7709 96.263 93.7709 95.2469H98.8792C98.8792 96.263 99.2828 97.2375 100.001 97.956C100.72 98.6745 101.694 99.0781 102.71 99.0781C103.727 99.0781 104.701 98.6745 105.42 97.956C106.138 97.2375 106.542 96.263 106.542 95.2469H107.819C108.157 95.2469 108.482 95.1123 108.722 94.8728C108.961 94.6333 109.096 94.3085 109.096 93.9698V90.1385C109.096 89.1224 108.692 88.1479 107.974 87.4294C107.255 86.7109 106.281 86.3073 105.265 86.3073ZM97.6021 82.476H99.7093C99.9629 82.4783 100.21 82.5561 100.419 82.6994C100.629 82.8426 100.79 83.045 100.884 83.2806L102.097 86.3073H97.6021V82.476ZM90.7825 83.4977C90.8422 83.2049 91.0027 82.9423 91.236 82.7556C91.4694 82.5689 91.7608 82.47 92.0596 82.476H95.0479V86.3073H90.2206L90.7825 83.4977ZM89.9396 96.5239C89.687 96.5239 89.4401 96.449 89.2301 96.3087C89.0201 96.1684 88.8564 95.9689 88.7597 95.7356C88.6631 95.5022 88.6378 95.2454 88.6871 94.9977C88.7363 94.75 88.858 94.5224 89.0366 94.3438C89.2152 94.1652 89.4427 94.0436 89.6905 93.9943C89.9382 93.945 90.195 93.9703 90.4283 94.067C90.6617 94.1636 90.8611 94.3273 91.0015 94.5373C91.1418 94.7474 91.2167 94.9943 91.2167 95.2469C91.2167 95.5856 91.0821 95.9104 90.8426 96.1499C90.6031 96.3894 90.2783 96.5239 89.9396 96.5239ZM102.71 96.5239C102.458 96.5239 102.211 96.449 102.001 96.3087C101.791 96.1684 101.627 95.9689 101.531 95.7356C101.434 95.5022 101.409 95.2454 101.458 94.9977C101.507 94.75 101.629 94.5224 101.807 94.3438C101.986 94.1652 102.214 94.0436 102.461 93.9943C102.709 93.945 102.966 93.9703 103.199 94.067C103.433 94.1636 103.632 94.3273 103.772 94.5373C103.913 94.7474 103.988 94.9943 103.988 95.2469C103.988 95.5856 103.853 95.9104 103.613 96.1499C103.374 96.3894 103.049 96.5239 102.71 96.5239ZM106.542 92.6927H105.546C105.186 92.2976 104.749 91.982 104.261 91.766C103.772 91.5499 103.244 91.4384 102.71 91.4384C102.177 91.4384 101.649 91.5499 101.16 91.766C100.672 91.982 100.234 92.2976 99.8753 92.6927H92.7747C92.4156 92.2976 91.978 91.982 91.4897 91.766C91.0015 91.5499 90.4735 91.4384 89.9396 91.4384C89.4057 91.4384 88.8777 91.5499 88.3895 91.766C87.9013 91.982 87.4636 92.2976 87.1045 92.6927H86.1084V90.1385C86.1084 89.7998 86.2429 89.475 86.4824 89.2355C86.7219 88.996 87.0467 88.8614 87.3854 88.8614H105.265C105.603 88.8614 105.928 88.996 106.168 89.2355C106.407 89.475 106.542 89.7998 106.542 90.1385V92.6927Z" fill="#ED017F"/>
<path d="M137.958 94.716C139.83 94.716 141.558 93.906 142.764 92.646L140.838 90.918C140.118 91.746 139.092 92.304 137.958 92.304C135.888 92.304 134.124 90.468 134.124 88.308C134.124 86.166 135.888 84.33 137.958 84.33C139.092 84.33 140.118 84.888 140.838 85.716L142.764 83.988C141.558 82.71 139.83 81.918 137.958 81.918C134.412 81.918 131.388 84.834 131.388 88.308C131.388 91.782 134.412 94.716 137.958 94.716ZM148.493 84.978C147.197 84.978 145.919 85.338 144.605 86.004L145.487 87.75C146.225 87.372 147.035 87.084 147.899 87.084C149.429 87.084 150.041 87.948 150.041 88.938V89.118C149.249 88.812 148.421 88.65 147.665 88.65C145.505 88.65 143.795 89.91 143.795 91.746C143.795 93.528 145.325 94.716 147.305 94.716C148.313 94.716 149.375 94.32 150.041 93.564V94.5H152.579V88.938C152.579 86.508 150.923 84.978 148.493 84.978ZM147.899 92.898C146.999 92.898 146.333 92.43 146.333 91.674C146.333 90.918 147.089 90.36 148.043 90.36C148.763 90.36 149.447 90.486 150.041 90.702V91.566C149.861 92.43 148.907 92.898 147.899 92.898ZM157.422 86.922V85.194H154.794V94.5H157.422V90.054C157.422 88.308 158.664 87.192 160.608 87.192V84.978C159.186 84.978 158.034 85.716 157.422 86.922ZM169.798 92.106V82.134H167.134V94.5H175.954V92.106H169.798ZM182.165 94.716C184.919 94.716 187.223 92.484 187.223 89.838C187.223 87.192 184.919 84.978 182.165 84.978C179.393 84.978 177.071 87.192 177.071 89.838C177.071 92.484 179.393 94.716 182.165 94.716ZM182.165 92.502C180.761 92.502 179.591 91.278 179.591 89.838C179.591 88.398 180.761 87.192 182.165 87.192C183.551 87.192 184.721 88.398 184.721 89.838C184.721 91.278 183.551 92.502 182.165 92.502ZM193.159 84.978C191.863 84.978 190.585 85.338 189.271 86.004L190.153 87.75C190.891 87.372 191.701 87.084 192.565 87.084C194.095 87.084 194.707 87.948 194.707 88.938V89.118C193.915 88.812 193.087 88.65 192.331 88.65C190.171 88.65 188.461 89.91 188.461 91.746C188.461 93.528 189.991 94.716 191.971 94.716C192.979 94.716 194.041 94.32 194.707 93.564V94.5H197.245V88.938C197.245 86.508 195.589 84.978 193.159 84.978ZM192.565 92.898C191.665 92.898 190.999 92.43 190.999 91.674C190.999 90.918 191.755 90.36 192.709 90.36C193.429 90.36 194.113 90.486 194.707 90.702V91.566C194.527 92.43 193.573 92.898 192.565 92.898ZM204.842 84.978C203.636 84.978 202.592 85.518 202.034 86.364V85.194H199.406V94.5H202.034V88.938L202.052 88.992C202.052 87.984 202.898 87.192 203.996 87.192C205.04 87.192 205.76 87.984 205.76 89.136V94.5H208.298V88.578C208.298 86.472 206.858 84.978 204.842 84.978ZM214.009 94.716C216.295 94.716 217.789 93.546 217.789 91.71C217.789 89.676 216.007 89.136 214.405 88.722C213.145 88.38 212.767 88.236 212.767 87.732C212.767 87.408 213.217 87.174 213.865 87.174C214.657 87.174 215.629 87.48 216.475 88.002L217.537 86.13C216.511 85.446 215.197 84.978 213.865 84.978C211.669 84.978 210.211 86.238 210.229 88.002C210.247 89.838 211.723 90.36 213.631 90.828C214.585 91.08 215.269 91.26 215.269 91.836C215.269 92.25 214.765 92.538 214.063 92.538C212.821 92.538 211.777 92.088 210.949 91.494L209.815 93.312C210.931 94.212 212.515 94.716 214.009 94.716Z" fill="#343434"/>
</g>
<defs>
<filter id="filter0_d_22_23" x="0" y="0" width="307.65" height="187" filterUnits="userSpaceOnUse" color-interpolation-filters="sRGB">
<feFlood flood-opacity="0" result="BackgroundImageFix"/>
<feColorMatrix in="SourceAlpha" type="matrix" values="0 0 0 0 0 0 0 0 0 0 0 0 0 0 0 0 0 0 127 0" result="hardAlpha"/>
<feOffset dx="4" dy="4"/>
<feGaussianBlur stdDeviation="29"/>
<feColorMatrix type="matrix" values="0 0 0 0 0 0 0 0 0 0 0 0 0 0 0 0 0 0 0.12 0"/>
<feBlend mode="normal" in2="BackgroundImageFix" result="effect1_dropShadow_22_23"/>
<feBlend mode="normal" in="SourceGraphic" in2="effect1_dropShadow_22_23" result="shape"/>
</filter>
</defs>
</svg>
