<svg width="317" height="187" viewBox="0 0 317 187" fill="none" xmlns="http://www.w3.org/2000/svg">
<g filter="url(#filter0_d_22_8)">
<rect x="54" y="54" width="204.65" height="71" rx="35.5" fill="white"/>
<path d="M106.542 84.3917L98.8791 77.6742C98.1767 77.0459 97.2673 76.6986 96.3249 76.6986C95.3825 76.6986 94.4732 77.0459 93.7708 77.6742L86.1083 84.3917C85.7026 84.7545 85.3789 85.1995 85.1587 85.6972C84.9385 86.1948 84.8268 86.7337 84.8312 87.2779V98.4396C84.8312 99.4557 85.2348 100.43 85.9533 101.149C86.6718 101.867 87.6463 102.271 88.6624 102.271H103.987C105.004 102.271 105.978 101.867 106.697 101.149C107.415 100.43 107.819 99.4557 107.819 98.4396V87.2651C107.821 86.7231 107.709 86.1867 107.489 85.6913C107.268 85.196 106.946 84.753 106.542 84.3917ZM98.8791 99.7167H93.7708V93.3313C93.7708 92.9925 93.9053 92.6677 94.1448 92.4282C94.3843 92.1887 94.7091 92.0542 95.0478 92.0542H97.602C97.9407 92.0542 98.2655 92.1887 98.505 92.4282C98.7445 92.6677 98.8791 92.9925 98.8791 93.3313V99.7167ZM105.265 98.4396C105.265 98.7783 105.13 99.1031 104.89 99.3426C104.651 99.5821 104.326 99.7167 103.987 99.7167H101.433V93.3313C101.433 92.3151 101.03 91.3406 100.311 90.6222C99.5926 89.9037 98.6181 89.5 97.602 89.5H95.0478C94.0317 89.5 93.0572 89.9037 92.3387 90.6222C91.6202 91.3406 91.2166 92.3151 91.2166 93.3313V99.7167H88.6624C88.3237 99.7167 87.9989 99.5821 87.7594 99.3426C87.5199 99.1031 87.3853 98.7783 87.3853 98.4396V87.2651C87.3856 87.0838 87.4244 86.9046 87.4993 86.7394C87.5741 86.5743 87.6833 86.427 87.8196 86.3073L95.482 79.6026C95.7151 79.3979 96.0147 79.285 96.3249 79.285C96.6351 79.285 96.9347 79.3979 97.1678 79.6026L104.83 86.3073C104.967 86.427 105.076 86.5743 105.151 86.7394C105.225 86.9046 105.264 87.0838 105.265 87.2651V98.4396Z" fill="#ED017F"/>
<path d="M140.154 82.134V86.994H134.52V82.134H131.874V94.5H134.52V89.388H140.154V94.5H142.8V82.134H140.154ZM149.751 94.716C152.505 94.716 154.809 92.484 154.809 89.838C154.809 87.192 152.505 84.978 149.751 84.978C146.979 84.978 144.657 87.192 144.657 89.838C144.657 92.484 146.979 94.716 149.751 94.716ZM149.751 92.502C148.347 92.502 147.177 91.278 147.177 89.838C147.177 88.398 148.347 87.192 149.751 87.192C151.137 87.192 152.307 88.398 152.307 89.838C152.307 91.278 151.137 92.502 149.751 92.502ZM167.657 84.978C166.271 84.978 165.119 85.644 164.633 86.67C164.057 85.626 162.959 84.978 161.681 84.978C160.529 84.978 159.611 85.536 159.161 86.418V85.194H156.533V94.5H159.161V88.884C159.161 87.894 159.899 87.192 160.961 87.192C161.915 87.192 162.599 87.948 162.599 89.028V94.518H165.119V88.884C165.119 87.894 165.875 87.192 166.919 87.192C167.891 87.192 168.575 87.948 168.575 89.028V94.518H171.095V88.578C171.095 86.472 169.601 84.978 167.657 84.978ZM177.696 92.394C176.598 92.394 175.788 91.71 175.482 90.702H182.196C182.196 87.192 180.486 84.978 177.57 84.978C174.852 84.978 172.782 87.012 172.782 89.82C172.782 92.682 174.942 94.716 177.714 94.716C179.082 94.716 180.684 94.14 181.512 93.276L179.838 91.566C179.334 92.052 178.434 92.394 177.696 92.394ZM177.678 87.3C178.74 87.3 179.424 87.894 179.676 88.812H175.518C175.86 87.876 176.688 87.3 177.678 87.3ZM191.647 92.106V82.134H188.983V94.5H197.803V92.106H191.647ZM204.015 94.716C206.769 94.716 209.073 92.484 209.073 89.838C209.073 87.192 206.769 84.978 204.015 84.978C201.243 84.978 198.921 87.192 198.921 89.838C198.921 92.484 201.243 94.716 204.015 94.716ZM204.015 92.502C202.611 92.502 201.441 91.278 201.441 89.838C201.441 88.398 202.611 87.192 204.015 87.192C205.401 87.192 206.571 88.398 206.571 89.838C206.571 91.278 205.401 92.502 204.015 92.502ZM215.009 84.978C213.713 84.978 212.435 85.338 211.121 86.004L212.003 87.75C212.741 87.372 213.551 87.084 214.415 87.084C215.945 87.084 216.557 87.948 216.557 88.938V89.118C215.765 88.812 214.937 88.65 214.181 88.65C212.021 88.65 210.311 89.91 210.311 91.746C210.311 93.528 211.841 94.716 213.821 94.716C214.829 94.716 215.891 94.32 216.557 93.564V94.5H219.095V88.938C219.095 86.508 217.439 84.978 215.009 84.978ZM214.415 92.898C213.515 92.898 212.849 92.43 212.849 91.674C212.849 90.918 213.605 90.36 214.559 90.36C215.279 90.36 215.963 90.486 216.557 90.702V91.566C216.377 92.43 215.423 92.898 214.415 92.898ZM226.692 84.978C225.486 84.978 224.442 85.518 223.884 86.364V85.194H221.256V94.5H223.884V88.938L223.902 88.992C223.902 87.984 224.748 87.192 225.846 87.192C226.89 87.192 227.61 87.984 227.61 89.136V94.5H230.148V88.578C230.148 86.472 228.708 84.978 226.692 84.978Z" fill="#343434"/>
</g>
<defs>
<filter id="filter0_d_22_8" x="0" y="0" width="320.65" height="187" filterUnits="userSpaceOnUse" color-interpolation-filters="sRGB">
<feFlood flood-opacity="0" result="BackgroundImageFix"/>
<feColorMatrix in="SourceAlpha" type="matrix" values="0 0 0 0 0 0 0 0 0 0 0 0 0 0 0 0 0 0 127 0" result="hardAlpha"/>
<feOffset dx="4" dy="4"/>
<feGaussianBlur stdDeviation="29"/>
<feColorMatrix type="matrix" values="0 0 0 0 0 0 0 0 0 0 0 0 0 0 0 0 0 0 0.12 0"/>
<feBlend mode="normal" in2="BackgroundImageFix" result="effect1_dropShadow_22_8"/>
<feBlend mode="normal" in="SourceGraphic" in2="effect1_dropShadow_22_8" result="shape"/>
</filter>
</defs>
</svg>
